<svg xmlns="http://www.w3.org/2000/svg" viewBox="0 0 1200 800" width="1200" height="800"><path fill="#FFF" d="M0 0h1200v800H0z"/><g transform="translate(567.0 351.0) rotate(0.0 40.0 40.0) scale(2.6666666666666665 2.6666666666666665)"><svg width="30" height="30" viewBox="0 0 30 30"><path d="M25.111 12.8v-.923h-1.752l-.77-.013c-.658 0-1.108.433-1.285.937v-.923h-1.962v5.988h1.962v-3.272c0-.597.484-1.081 1.081-1.081h.765v4.352h1.962v-3.272c0-.597.484-1.081 1.081-1.081h.974v-1.636l-.77-.013c-.659 0-1.109.434-1.286.937zm-13.959-.798-1.053 3.461-1.052-3.461H7.085l2.131 5.988h1.767l2.13-5.988zm-8.016 0v-.399c0-.35.283-.633.633-.633h1.238V9.328h-1.7a2.132 2.132 0 0 0-2.132 2.132v.543H.028v1.587h1.147v4.4h1.962v-4.4h1.871v4.4H6.97v-5.987H3.136zm12.697-.081h-.239a2.91 2.91 0 0 0-2.91 2.91v.329a2.91 2.91 0 0 0 2.91 2.91h.531c1.1 0 2.042-.679 2.429-1.641l-1.73-.505s-.207.593-.929.593c-.815 0-1.246-.446-1.303-.952v-.003a1.032 1.032 0 0 1-.006-.111h4.159v-.619a2.913 2.913 0 0 0-2.912-2.911zm-1.246 2.375a1.013 1.013 0 0 1 1.011-.968h.187c.544 0 .987.429 1.011.968h-2.209zm14.167 1.393a1.22 1.22 0 1 0 0 2.44 1.22 1.22 0 0 0 0-2.44z" fill="none"/></svg></g></svg>